<?xml version="1.0" encoding="UTF-8" standalone="no"?>
<!-- Created with Inkscape (http://www.inkscape.org/) -->

<svg
   width="44.974483mm"
   height="91.514999mm"
   viewBox="0 0 44.974483 91.514999"
   version="1.1"
   id="svg5"
   xmlns="http://www.w3.org/2000/svg"
   xmlns:svg="http://www.w3.org/2000/svg">
  <defs
     id="defs2">
    <rect
       x="268.33347"
       y="420.79297"
       width="66.864471"
       height="58.763885"
       id="rect5777" />
  </defs>
  <g
     id="layer1"
     transform="translate(-61.215002,-82.016996)">
    <ellipse
       style="fill:#008000;fill-opacity:1;stroke-width:0.264583"
       id="path4674"
       cx="84.362358"
       cy="122.72269"
       rx="21.37483"
       ry="24.867958" />
    <ellipse
       style="fill:#483e37;fill-opacity:1;stroke-width:0.264583"
       id="path4676"
       cx="84.116608"
       cy="127.29581"
       rx="7.3690372"
       ry="4.3728328" />
    <ellipse
       style="fill:#483e37;fill-opacity:1;stroke-width:0.264583"
       id="path4730"
       cx="76.480827"
       cy="131.63271"
       rx="8.5647669"
       ry="4.948163" />
    <ellipse
       style="fill:#483e37;fill-opacity:1;stroke-width:0.264583"
       id="path4730-6"
       cx="91.022926"
       cy="131.26486"
       rx="8.5647669"
       ry="4.948163" />
    <ellipse
       style="fill:#483e37;fill-opacity:1;stroke-width:0.264583"
       id="path4730-7"
       cx="83.920929"
       cy="132.4671"
       rx="8.5647669"
       ry="4.948163" />
    <ellipse
       style="fill:#241f1c;fill-opacity:1;stroke-width:0.264583"
       id="path4834"
       cx="73.252914"
       cy="122.04659"
       rx="3.3973196"
       ry="3.8073936" />
    <ellipse
       style="fill:#241f1c;fill-opacity:1;stroke-width:0.264583"
       id="path4834-5"
       cx="95.378929"
       cy="113.48454"
       rx="3.3973196"
       ry="3.8073936" />
    <path
       style="fill:#217844;fill-opacity:1;stroke-width:0.264583"
       id="path4925"
       d="M 62.902491,99.140628 60.159442,95.447385 61.468206,91.037 64.211255,94.730242 Z"
       transform="rotate(180,70.654513,96.738452)" />
    <path
       style="fill:#217844;fill-opacity:1;stroke-width:0.264583"
       id="path4925-3"
       d="M 62.902491,99.140628 60.159442,95.447385 61.468206,91.037 64.211255,94.730242 Z"
       transform="matrix(0,0.99980791,-0.97535425,0,183.45859,35.420115)" />
    <ellipse
       style="fill:#dee3db;fill-opacity:1;stroke-width:0.264583"
       id="path5120"
       cx="73.586082"
       cy="123.11156"
       rx="1.1139224"
       ry="1.3016263" />
    <ellipse
       style="fill:#dee3db;fill-opacity:1;stroke-width:0.264583"
       id="path5120-2"
       cx="96.389717"
       cy="112.43541"
       rx="1.1139224"
       ry="1.3016263" />
    <path
       style="fill:#d4aa00;fill-opacity:1;stroke-width:0.264622"
       id="path5237"
       transform="matrix(0.99970288,-0.02437503,0,1,0,0)"
       d="m 83.130025,149.16182 a 8.0061388,17.054138 0 0 1 -5.435916,16.15144 8.0061388,17.054138 0 0 1 -8.926117,-5.7812 8.0061388,17.054138 0 0 1 -0.295213,-19.86333 8.0061388,17.054138 0 0 1 8.736571,-6.97231" />
    <ellipse
       style="fill:#d4aa00;fill-opacity:1;stroke-width:0.264583"
       id="path5291"
       cx="84.301857"
       cy="133.95648"
       rx="14.028301"
       ry="5.7999511" />
    <ellipse
       style="fill:#d4aa00;fill-opacity:1;stroke-width:0.264583"
       id="path5237-9"
       cx="93.449898"
       cy="147.7413"
       rx="8.8986559"
       ry="17.054138" />
    <ellipse
       style="fill:#d4aa00;fill-opacity:1;stroke-width:0.264583"
       id="path5237-1"
       cx="82.724037"
       cy="148.68907"
       rx="8.8986559"
       ry="17.054138" />
    <text
       xml:space="preserve"
       style="font-size:6.12142px;fill:#28170b;fill-opacity:1;stroke-width:0.510117"
       x="-81.745621"
       y="-158.62282"
       id="text5849-7"
       transform="matrix(-1.226052,-0.07037276,0.04666146,-0.8129478,0,0)"><tspan
         id="tspan5847-0"
         style="stroke-width:0.510117"
         x="-81.745621"
         y="-158.62282">Q</tspan></text>
    <path
       style="fill:#d4aa00;fill-opacity:1;stroke-width:0.264583"
       id="path5438"
       d="m 94.787313,163.31737 a 10.307226,3.3146141 0 0 1 -6.998281,3.13916 10.307226,3.3146141 0 0 1 -11.49162,-1.12362 10.307226,3.3146141 0 0 1 -0.380062,-3.8606 10.307226,3.3146141 0 0 1 11.247595,-1.35513" />
    <text
       xml:space="preserve"
       transform="matrix(2.3032729,-1.2634755,0.80908025,1.5813262,-899.87065,-210.37628)"
       id="text5775"
       style="white-space:pre;shape-inside:url(#rect5777);fill:#28170b;fill-opacity:1"><tspan
         x="268.33398"
         y="431.41016"
         id="tspan320">D</tspan></text>
    <text
       xml:space="preserve"
       style="font-size:30.9335px;fill:#28170b;fill-opacity:1;stroke-width:2.57779"
       x="88.162071"
       y="126.69075"
       id="text5789"
       transform="scale(0.97632698,1.024247)"><tspan
         id="tspan5787"
         style="stroke-width:2.57779"
         x="88.162071"
         y="126.69075">R</tspan></text>
    <text
       xml:space="preserve"
       style="font-size:6.12142px;fill:#28170b;fill-opacity:1;stroke-width:0.510117"
       x="62.021778"
       y="169.20523"
       id="text5849"
       transform="scale(1.22807,0.81428583)"><tspan
         id="tspan5847"
         style="stroke-width:0.510117"
         x="62.021778"
         y="169.20523">Q</tspan></text>
  </g>
</svg>
